<svg width="20" height="20" viewBox="0 0 20 20" fill="none" xmlns="http://www.w3.org/2000/svg">
<path d="M10.0938 13.7734C10.0938 13.8766 10.1734 13.9609 10.2695 13.9609H14.6055C14.7016 13.9609 14.7812 13.8766 14.7812 13.7734V12.6484C14.7812 12.5453 14.7016 12.4609 14.6055 12.4609H10.2695C10.1734 12.4609 10.0938 12.5453 10.0938 12.6484V13.7734ZM5.52578 13.9164L10.0258 10.143C10.1148 10.068 10.1148 9.92969 10.0258 9.85469L5.52578 6.08359C5.49862 6.06049 5.46539 6.04567 5.43005 6.04089C5.39472 6.03611 5.35875 6.04157 5.32642 6.05662C5.29409 6.07168 5.26677 6.09569 5.24768 6.12581C5.22859 6.15594 5.21855 6.1909 5.21875 6.22656V7.69609C5.21875 7.75234 5.24219 7.80391 5.28672 7.83906L7.86016 10L5.28672 12.1609C5.26577 12.1785 5.24885 12.2003 5.23712 12.225C5.22539 12.2497 5.21912 12.2766 5.21875 12.3039V13.7734C5.21875 13.9328 5.40391 14.0195 5.52578 13.9164ZM18.625 0.625H1.375C0.960156 0.625 0.625 0.960156 0.625 1.375V18.625C0.625 19.0398 0.960156 19.375 1.375 19.375H18.625C19.0398 19.375 19.375 19.0398 19.375 18.625V1.375C19.375 0.960156 19.0398 0.625 18.625 0.625ZM17.6875 17.6875H2.3125V2.3125H17.6875V17.6875Z" fill="#0593FB"/>
</svg>
